HIERARCHY
ROOT pelvis
{
	OFFSET 0.000000 0.000000 0.734067
	CHANNELS 6 Xposition Yposition Zposition Xrotation Yrotation Zrotation
	JOINT spine
	{
		OFFSET 0.000000 0.000000 0.000000
		CHANNELS 6 Xposition Yposition Zposition Xrotation Yrotation Zrotation
		JOINT spine.001
		{
			OFFSET 0.000000 -0.014122 0.269463
			CHANNELS 3 Xrotation Yrotation Zrotation
			JOINT neck
			{
				OFFSET 0.000000 0.032884 0.267822
				CHANNELS 6 Xposition Yposition Zposition Xrotation Yrotation Zrotation
				JOINT face
				{
					OFFSET 0.000000 0.003432 0.196637
					CHANNELS 6 Xposition Yposition Zposition Xrotation Yrotation Zrotation
					End Site
					{
						OFFSET 0.000000 -0.029482 -0.007700
					}
				}
			}
			JOINT shoulder.L
			{
				OFFSET 0.000000 0.032884 0.267822
				CHANNELS 6 Xposition Yposition Zposition Yrotation Xrotation Zrotation
				JOINT upper_arm.L
				{
					OFFSET 0.165374 0.000000 0.000000
					CHANNELS 6 Xposition Yposition Zposition Xrotation Yrotation Zrotation
					JOINT forearm.L
					{
						OFFSET 0.288452 0.000115 0.000952
						CHANNELS 6 Xposition Yposition Zposition Xrotation Yrotation Zrotation
						End Site
						{
							OFFSET 0.235490 -0.004005 -0.001312
						}
					}
				}
			}
			JOINT shoulder.R
			{
				OFFSET 0.000000 0.032884 0.267822
				CHANNELS 6 Xposition Yposition Zposition Yrotation Xrotation Zrotation
				JOINT upper_arm.R
				{
					OFFSET -0.165374 0.000000 0.000000
					CHANNELS 6 Xposition Yposition Zposition Xrotation Yrotation Zrotation
					JOINT forearm.R
					{
						OFFSET -0.290405 0.000115 0.000952
						CHANNELS 6 Xposition Yposition Zposition Xrotation Yrotation Zrotation
						End Site
						{
							OFFSET -0.236904 -0.004030 -0.001312
						}
					}
				}
			}
		}
	}
	JOINT pelvis.L
	{
		OFFSET 0.000000 0.000000 0.000000
		CHANNELS 6 Xposition Yposition Zposition Yrotation Xrotation Zrotation
		End Site
		{
			OFFSET 0.102176 0.000000 0.000000
		}
	}
	JOINT pelvis.R
	{
		OFFSET 0.000000 0.000000 0.000000
		CHANNELS 6 Xposition Yposition Zposition Yrotation Xrotation Zrotation
		End Site
		{
			OFFSET -0.102176 0.000000 0.000000
		}
	}
	JOINT thigh.L
	{
		OFFSET 0.102176 0.000000 0.000000
		CHANNELS 6 Xposition Yposition Zposition Xrotation Yrotation Zrotation
		JOINT shin.L
		{
			OFFSET 0.018502 0.000000 -0.353038
			CHANNELS 6 Xposition Yposition Zposition Xrotation Yrotation Zrotation
			JOINT foot.L
			{
				OFFSET 0.016053 0.000000 -0.306305
				CHANNELS 3 Xrotation Yrotation Zrotation
				End Site
				{
					OFFSET 0.015128 -0.154245 -0.064770
				}
			}
			JOINT heel.02.L
			{
				OFFSET 0.016053 0.000000 -0.306305
				CHANNELS 3 Xrotation Yrotation Zrotation
				End Site
				{
					OFFSET 0.088444 0.034244 -0.069286
				}
			}
		}
	}
	JOINT thigh.R
	{
		OFFSET -0.102176 0.000000 0.000000
		CHANNELS 6 Xposition Yposition Zposition Xrotation Yrotation Zrotation
		JOINT shin.R
		{
			OFFSET -0.018712 0.000000 -0.357043
			CHANNELS 6 Xposition Yposition Zposition Xrotation Yrotation Zrotation
			JOINT foot.R
			{
				OFFSET -0.016444 0.000000 -0.313773
				CHANNELS 3 Xrotation Yrotation Zrotation
				End Site
				{
					OFFSET -0.016254 -0.165723 -0.069590
				}
			}
			JOINT heel.02.R
			{
				OFFSET -0.016444 0.000000 -0.313773
				CHANNELS 3 Xrotation Yrotation Zrotation
				End Site
				{
					OFFSET -0.080533 0.034244 -0.058195
				}
			}
		}
	}
}
MOTION
Frames: 11
Frame Time: 0.041667
0.030435 -0.015393 0.713598 -0.000000 0.000000 -720.655226 -0.000000 -0.000000 0.000000 -3.746103 5.641485 0.481360 9.999986 -0.008619 -0.070459 -0.000000 0.032884 0.267822 33.926960 -2.486542 1.481269 0.000000 0.003432 0.196637 3.853751 -0.000000 -0.000002 -0.000000 0.032884 0.267822 1.868524 0.003741 -0.229387 0.165374 0.000000 0.000000 0.618178 75.174510 -0.847086 0.288452 0.000115 0.000952 1.408866 7.036987 -22.659393 -0.000000 0.032884 0.267822 1.919860 0.003948 -0.235709 -0.165374 0.000000 -0.000000 24.073975 -81.457007 27.838389 -0.290405 0.000115 0.000952 1.541249 -7.992969 21.501147 0.000000 0.000000 0.000000 2.616554 -0.000001 0.000049 0.000000 0.000000 0.000000 2.616521 -0.000000 0.000000 0.102069 -0.000000 -0.004664 7.433685 4.965800 0.067493 0.018502 -0.000000 -0.353038 -1.411801 0.857921 -0.063448 -5.285074 -6.830035 13.053216 -16.716000 51.381194 42.201201 -0.102069 -0.000000 0.004664 6.278438 0.033806 -0.331216 -0.018712 0.000000 -0.357043 1.763339 0.843195 -0.105355 -6.332322 7.089650 -13.057688 -19.853611 -49.569002 -46.295302 
0.025623 -0.015027 0.714212 -0.000000 0.000000 -720.838986 0.000000 0.000000 -0.000000 -3.660066 5.505513 0.465573 9.999795 -0.052355 -0.426340 -0.000000 0.032884 0.267822 33.434538 -2.315629 -0.531464 0.000000 0.003432 0.196637 4.078703 -0.000000 -0.000004 -0.000000 0.032884 0.267822 2.073337 0.004605 -0.254516 0.165374 -0.000000 -0.000000 0.711659 74.974406 -0.971625 0.288452 0.000115 0.000952 1.312432 6.614957 -22.586181 -0.000000 0.032884 0.267822 2.124634 0.004836 -0.260818 -0.165374 0.000000 0.000000 26.665383 -81.332472 30.859703 -0.290405 0.000115 0.000952 1.309425 -7.166293 20.501853 0.000000 -0.000000 0.000000 2.583063 -0.000001 0.000048 0.000000 -0.000000 0.000000 2.583063 -0.000000 0.000000 0.102072 -0.000000 -0.004605 7.098780 4.697382 0.081151 0.018502 0.000000 -0.353038 -0.757624 0.542775 -0.036128 -5.478893 -6.781495 12.858651 -17.254750 51.692361 42.495460 -0.102072 0.000000 0.004605 6.291129 -0.454985 -0.305094 -0.018712 -0.000000 -0.357043 1.690123 1.133897 -0.105254 -6.531735 7.082239 -12.945509 -19.777636 -49.568510 -46.464356 
0.020907 -0.014059 0.714416 -0.000000 0.000000 -721.218963 0.000000 -0.000000 0.000000 -3.571186 5.370294 0.449925 9.999610 -0.067425 -0.549098 -0.000000 0.032884 0.267822 32.966615 -2.258239 -3.039334 0.000000 0.003432 0.196637 4.720335 -0.000001 -0.000006 -0.000000 0.032884 0.267822 2.250463 0.005427 -0.276351 0.165374 -0.000000 0.000000 0.948439 74.880566 -1.281866 0.288452 0.000115 0.000952 1.243887 6.310224 -22.546736 -0.000000 0.032884 0.267822 2.301801 0.005676 -0.282634 -0.165374 0.000000 0.000000 29.078161 -81.113414 33.731200 -0.290405 0.000115 0.000952 1.065106 -6.180723 19.548485 0.000000 -0.000000 0.000000 2.512669 0.000001 -0.000066 0.000000 -0.000000 0.000000 2.512636 -0.000000 -0.000000 0.102077 0.000000 -0.004479 6.719270 4.548325 0.085580 0.018502 -0.000000 -0.353038 -0.046924 0.021232 -0.002450 -5.631524 -6.750612 12.721264 -17.817979 51.992517 42.726334 -0.102077 -0.000000 0.004479 6.196378 -0.831082 -0.280176 -0.018712 0.000000 -0.357043 1.707715 1.289742 -0.108662 -6.850426 7.011589 -12.652163 -19.676870 -49.506803 -46.360394 
0.016489 -0.013129 0.714551 -0.000000 0.000000 -721.818271 0.000000 -0.000000 0.000000 -3.546021 5.212876 0.435563 9.999840 -0.045777 -0.372907 -0.000000 0.032884 0.267822 32.650831 -2.317749 -5.596175 0.000000 0.003432 0.196637 5.530494 0.000001 -0.000001 -0.000000 0.032884 0.267822 2.387636 0.006105 -0.293005 0.165374 -0.000000 -0.000000 1.200602 74.849919 -1.611470 0.288452 0.000115 0.000952 1.248782 6.395452 -22.287245 -0.000000 0.032884 0.267822 2.438927 0.006371 -0.299349 -0.165374 0.000000 0.000000 30.760778 -80.812804 35.825257 -0.290405 0.000115 0.000952 0.882092 -5.385284 18.813526 0.000000 0.000000 0.000000 2.429066 -0.000000 -0.000022 0.000000 0.000000 0.000000 2.429066 -0.000000 0.000000 0.102084 0.000000 -0.004330 6.534561 4.519900 0.084850 0.018502 -0.000000 -0.353038 0.328299 -0.637755 0.019028 -5.545623 -6.808483 12.880462 -18.244450 52.235463 42.982268 -0.102084 0.000000 0.004330 6.084706 -1.076766 -0.262084 -0.018712 -0.000000 -0.357043 1.660619 1.303158 -0.105859 -7.072562 6.809044 -12.149172 -19.412668 -49.342215 -46.080725 
0.012411 -0.012609 0.714944 -0.000000 0.000000 -722.469161 -0.000000 0.000000 -0.000000 -3.586108 5.011360 0.420471 9.999890 -0.024904 -0.203267 -0.000000 0.032884 0.267822 32.541764 -2.366888 -7.535575 0.000000 0.003432 0.196637 5.930394 -0.000000 -0.000005 -0.000000 0.032884 0.267822 2.539225 0.006907 -0.311645 0.165374 -0.000000 0.000000 1.479008 74.835780 -1.975090 0.288452 0.000115 0.000952 1.296752 6.777125 -21.675506 -0.000000 0.032884 0.267822 2.590517 0.007190 -0.317980 -0.165374 0.000000 0.000000 32.489011 -80.605002 37.926456 -0.290405 0.000115 0.000952 0.748361 -4.767526 18.269393 0.000000 0.000000 -0.000000 2.357744 0.000001 -0.000047 0.000000 0.000000 -0.000000 2.357744 -0.000000 0.000000 0.102089 0.000000 -0.004203 6.555791 4.583781 0.081457 0.018502 0.000000 -0.353038 0.356362 -1.370915 0.022926 -5.263680 -6.932254 13.271869 -18.490188 52.409490 43.283011 -0.102089 -0.000000 0.004203 6.070305 -1.247251 -0.252436 -0.018712 -0.000000 -0.357043 1.376626 1.221372 -0.086774 -7.020766 6.509596 -11.584960 -18.997401 -49.108517 -45.790893 
0.008647 -0.012243 0.715642 -0.000000 0.000000 -722.963994 0.000000 0.000000 0.000000 -3.646524 4.756608 0.401598 9.999849 -0.041198 -0.335416 -0.000000 0.032884 0.267822 32.679849 -2.337276 -8.471859 -0.000000 0.003432 0.196637 5.569011 -0.000000 -0.000003 -0.000000 0.032884 0.267822 2.757478 0.008147 -0.338541 0.165374 0.000000 0.000000 2.052674 74.831129 -2.723695 0.288452 0.000115 0.000952 1.346071 7.191158 -21.045285 -0.000000 0.032884 0.267822 2.808820 0.008452 -0.344792 -0.165374 -0.000000 0.000000 35.021959 -80.601184 40.817876 -0.290405 0.000115 0.000952 0.613325 -4.093231 17.800825 0.000000 0.000000 0.000000 2.298401 -0.000000 0.000015 0.000000 0.000000 0.000000 2.298368 -0.000000 0.000000 0.102093 -0.000000 -0.004098 6.578245 4.682491 0.076045 0.018502 0.000000 -0.353038 0.372210 -2.092301 0.026279 -4.995852 -7.048733 13.645337 -18.616384 52.535510 43.600168 -0.102093 0.000000 0.004097 6.161264 -1.431146 -0.246343 -0.018712 0.000000 -0.357043 0.890157 1.122099 -0.055340 -6.782682 6.245277 -11.171077 -18.566056 -48.882984 -45.595379 
0.005162 -0.011557 0.716432 -0.000000 0.000000 -723.221520 -0.000000 0.000000 0.000000 -3.670696 4.470118 0.378335 9.999417 -0.088000 -0.717280 0.000000 0.032884 0.267821 32.975767 -2.322458 -8.761074 -0.000000 0.003432 0.196637 4.740867 0.000000 0.000002 -0.000000 0.032884 0.267822 3.017376 0.009753 -0.370309 0.165374 0.000000 -0.000000 3.142478 74.894691 -4.140551 0.288452 0.000115 0.000952 1.407528 7.528486 -20.926036 -0.000000 0.032884 0.267822 3.068631 0.010086 -0.376574 -0.165374 -0.000000 -0.000000 37.789842 -80.733956 43.866709 -0.290405 0.000115 0.000952 0.473435 -3.344011 17.419581 0.000000 0.000000 0.000000 2.241336 0.000001 -0.000050 0.000000 0.000000 0.000000 2.241336 -0.000000 0.000000 0.102097 -0.000000 -0.003996 6.447481 4.757280 0.070305 0.018502 -0.000000 -0.353038 0.596378 -2.690571 0.045205 -4.834404 -7.123903 13.882430 -18.575649 52.575200 43.845416 -0.102097 -0.000000 0.003996 6.279693 -1.703396 -0.236170 -0.018712 0.000000 -0.357043 0.398445 1.087675 -0.024652 -6.619714 6.131358 -11.018056 -18.218744 -48.716765 -45.523532 
0.001789 -0.010552 0.717057 -0.000000 0.000000 -723.254523 -0.000000 0.000000 0.000000 -3.614899 4.207752 0.354043 9.998593 -0.139085 -1.132939 -0.000000 0.032884 0.267822 33.151703 -2.486151 -9.149797 -0.000000 0.003432 0.196637 4.076411 -0.000002 -0.000010 -0.000000 0.032884 0.267822 3.229422 0.011174 -0.396407 0.165374 0.000000 -0.000000 4.573634 75.117840 -5.980642 0.288452 0.000115 0.000952 1.495667 7.796494 -21.441979 -0.000000 0.032884 0.267822 3.280681 0.011531 -0.402660 -0.165374 -0.000000 -0.000000 39.153329 -80.886488 45.296206 -0.290405 0.000115 0.000952 0.392234 -2.880081 17.322832 0.000000 -0.000000 0.000000 2.191597 -0.000001 0.000033 0.000000 -0.000000 0.000000 2.191597 0.000000 0.000000 0.102101 -0.000000 -0.003907 6.226636 4.770914 0.067148 0.018502 -0.000000 -0.353038 0.877503 -3.109921 0.069710 -4.672146 -7.147507 14.015359 -18.158983 52.406781 43.860217 -0.102101 -0.000000 0.003907 6.407762 -2.077563 -0.220067 -0.018712 0.000000 -0.357043 -0.006298 1.121420 0.000392 -6.668514 6.190800 -11.114306 -17.980335 -48.621818 -45.570185 
-0.001746 -0.009604 0.717350 -0.000000 0.000000 -723.124476 -0.000000 0.000000 -0.000000 -3.471008 4.013340 0.332596 9.997477 -0.188006 -1.531321 0.000000 0.032884 0.267822 33.002948 -2.816069 -9.947586 -0.000000 0.003432 0.196637 3.913767 -0.000004 -0.000007 -0.000000 0.032884 0.267822 3.335346 0.011916 -0.409314 0.165374 0.000000 -0.000000 5.885055 75.510794 -7.627252 0.288452 0.000115 0.000952 1.570802 7.909914 -22.218071 -0.000000 0.032884 0.267822 3.386681 0.012286 -0.415615 -0.165374 0.000000 -0.000000 38.190665 -80.976428 44.149363 -0.290405 0.000115 0.000952 0.431506 -3.070598 17.637758 0.000000 -0.000000 0.000000 2.151759 0.000002 -0.000084 0.000000 -0.000000 0.000000 2.151729 -0.000000 0.000000 0.102104 -0.000000 -0.003836 6.101310 4.701727 0.069493 0.018502 -0.000000 -0.353038 0.892967 -3.400820 0.073196 -4.360336 -7.095440 14.071400 -17.325403 52.003489 43.630600 -0.102104 0.000000 0.003836 6.603357 -2.466931 -0.204344 -0.018712 0.000000 -0.357043 -0.427465 1.098339 0.026487 -6.835583 6.343049 -11.340646 -17.861336 -48.600211 -45.717444 
-0.005487 -0.008766 0.717211 -0.000000 0.000000 -723.014811 -0.000000 -0.000000 0.000000 -3.278077 3.859103 0.313260 9.995777 -0.243966 -1.987287 0.000000 0.032884 0.267822 32.663915 -3.014795 -10.731254 -0.000000 0.003432 0.196637 4.076992 0.000001 -0.000001 -0.000000 0.032884 0.267822 3.376622 0.012213 -0.414331 0.165374 0.000000 0.000000 6.640440 75.902246 -8.539593 0.288452 0.000115 0.000952 1.577525 7.743798 -22.870967 0.000000 0.032884 0.267822 3.427915 0.012587 -0.420638 -0.165374 0.000000 -0.000000 35.968883 -80.927531 41.675868 -0.290405 0.000115 0.000952 0.576091 -3.818257 18.174461 0.000000 0.000000 0.000000 2.100286 0.000001 -0.000061 0.000000 0.000000 0.000000 2.100253 0.000000 0.000000 0.102107 -0.000000 -0.003745 6.169576 4.563754 0.077730 0.018502 0.000000 -0.353038 0.516011 -3.665361 0.043481 -3.830986 -6.985128 14.121500 -16.461553 51.595167 43.468676 -0.102107 0.000000 0.003745 6.843178 -2.726617 -0.196254 -0.018712 0.000000 -0.357043 -0.924860 0.866044 0.055439 -7.001815 6.443419 -11.463360 -17.825896 -48.615862 -45.867292 
-0.009030 -0.007664 0.716601 -0.000000 0.000000 -723.159502 -0.000000 0.000000 0.000000 -3.092443 3.661677 0.291252 9.993439 -0.303097 -2.469261 -0.000000 0.032884 0.267822 32.443740 -2.789512 -10.899495 -0.000000 0.003432 0.196637 4.223005 0.000002 0.000003 -0.000000 0.032884 0.267822 3.453586 0.012779 -0.423880 0.165374 0.000000 0.000000 6.679495 76.046493 -8.567581 0.288452 0.000115 0.000952 1.539231 7.421121 -23.402275 -0.000000 0.032884 0.267822 3.504885 0.013160 -0.430134 -0.165374 0.000000 0.000000 34.487910 -80.777321 40.095570 -0.290405 0.000115 0.000952 0.726401 -4.578293 18.602439 0.000000 -0.000000 0.000000 2.025268 -0.000000 -0.000005 0.000000 -0.000000 0.000000 2.025268 -0.000000 0.000000 0.102112 -0.000000 -0.003611 6.341762 4.435795 0.087015 0.018502 -0.000000 -0.353038 -0.031293 -3.973158 -0.002720 -3.131589 -6.908213 14.334289 -16.061185 51.480683 43.693277 -0.102112 0.000000 0.003611 6.979565 -2.794947 -0.196006 -0.018712 -0.000000 -0.357043 -1.342133 0.426085 0.075317 -7.186955 6.396180 -11.287012 -17.740030 -48.571999 -45.836928 
